<svg width="240" height="147" viewBox="0 0 240 147" fill="none" xmlns="http://www.w3.org/2000/svg">
<path d="M211.333 67.1835V81.8165H229.333M229.333 81.8165V67.1835L204.926 46.891C202.539 44.9062 200.391 42.6502 198.525 40.1686L183.326 19.9497C179.391 14.7148 174.231 10.5261 168.298 7.75169L164.054 5.76669C158.749 3.28584 152.965 2 147.109 2H29.3332C19.0239 2 10.6665 10.3573 10.6665 20.6667V85.0994C10.6665 95.4087 19.0239 103.766 29.3332 103.766H37.3332M229.333 81.8165V85.0994C229.333 95.4087 220.976 103.766 210.667 103.766H205.333M136 62.5275H154M150 105.096H90.6665M134 16.633V45.8991H184.667L171.398 28.2484C168.299 24.1263 164.161 20.9016 159.407 18.9044V18.9044C155.838 17.4052 152.006 16.633 148.135 16.633H134Z" stroke="white" stroke-width="3"/>
<ellipse cx="64.0003" cy="103.101" rx="17.3333" ry="17.2936" stroke="white" stroke-width="3"/>
<ellipse cx="63.9997" cy="103.101" rx="6.66667" ry="6.65138" fill="white"/>
<ellipse cx="177.334" cy="103.101" rx="6.66667" ry="6.65138" fill="white"/>
<ellipse cx="177.333" cy="103.101" rx="17.3333" ry="17.2936" stroke="white" stroke-width="3"/>
<path d="M0 120.395H240" stroke="white" stroke-width="3"/>
<ellipse cx="64.0002" cy="43.9036" rx="10.6667" ry="31.2615" stroke="#5CBAEC" stroke-width="3"/>
<path d="M75.9997 27.5259C70.9063 29.0023 65.0558 31.5137 59.135 34.9242C44.1485 43.5568 34.3874 54.6813 37.3329 59.7713C40.2784 64.8614 54.8152 61.9896 69.8017 53.357C84.7882 44.7244 94.5494 33.6 91.6038 28.5099C90.6351 26.8359 88.4128 26.023 85.333 25.993" stroke="#5CBAEC" stroke-width="3"/>
<path d="M38 34.6634C36.7228 32.2073 36.4282 30.0736 37.3332 28.5096C40.2788 23.4195 54.8155 26.2913 69.802 34.924C84.7885 43.5566 94.5497 54.681 91.6042 59.7711C88.6586 64.8612 74.1219 61.9894 59.1354 53.3568C53.0684 49.8621 47.8579 45.959 44 42.2132" stroke="#5CBAEC" stroke-width="3"/>
<path d="M45.167 38.5824C45.167 41.0569 43.1555 43.0687 40.667 43.0687C38.1785 43.0687 36.167 41.0569 36.167 38.5824C36.167 36.108 38.1785 34.0962 40.667 34.0962C43.1555 34.0962 45.167 36.108 45.167 38.5824Z" stroke="#5CBAEC" stroke-width="3"/>
<path d="M85.167 26.6098C85.167 29.0842 83.1555 31.096 80.667 31.096C78.1785 31.096 76.167 29.0842 76.167 26.6098C76.167 24.1353 78.1785 22.1235 80.667 22.1235C83.1555 22.1235 85.167 24.1353 85.167 26.6098Z" stroke="#5CBAEC" stroke-width="3"/>
</svg>
