<svg width="157" height="167" viewBox="0 0 157 167" fill="none" xmlns="http://www.w3.org/2000/svg">
<path d="M2.00049 146H0.500488V147.5H2.00049V146ZM62.5349 108.667L61.5647 109.811L62.5349 110.633L63.505 109.811L62.5349 108.667ZM21.9569 111.333V109.833H20.4569V111.333H21.9569ZM21.9569 119.333H20.4569V120.833H21.9569V119.333ZM39.2524 119.333V120.833H40.7524V119.333H39.2524ZM39.2524 111.333H40.7524V109.833H39.2524V111.333ZM85.1521 111.333V109.833H83.6521V111.333H85.1521ZM85.1521 119.333H83.6521V120.833H85.1521V119.333ZM89.5016 128.667V130.167H91.0016V128.667H89.5016ZM35.2611 128.667H33.7611V130.167H35.2611V128.667ZM25.2829 128.667V130.167H26.7829V128.667H25.2829ZM19.9612 128.667V127.167H18.4612V128.667H19.9612ZM53.8871 34.8333C54.7155 34.8333 55.3871 34.1618 55.3871 33.3333C55.3871 32.5049 54.7155 31.8333 53.8871 31.8333V34.8333ZM92.4695 34H90.9695V35.5H92.4695V34ZM47.8607 14.0557C47.5233 14.8123 47.863 15.6992 48.6196 16.0366C49.3762 16.374 50.2631 16.0342 50.6005 15.2776L47.8607 14.0557ZM73.8277 15.3282C74.193 16.0717 75.0919 16.3783 75.8354 16.0129C76.5789 15.6476 76.8855 14.7487 76.5202 14.0052L73.8277 15.3282ZM54.0983 4.15921L52.7666 3.46891L54.0983 4.15921ZM69.6793 3.98501L70.9751 3.22939L69.6793 3.98501ZM11.4049 104.433L11.8469 105.867L11.4049 104.433ZM3.50049 146V117.175H0.500488V146H3.50049ZM44.2692 95.144L61.5647 109.811L63.505 107.523L46.2095 92.856L44.2692 95.144ZM63.505 109.811L80.8006 95.144L78.8603 92.856L61.5647 107.523L63.505 109.811ZM11.8469 105.867L25.725 101.587L24.8409 98.7205L10.9628 103L11.8469 105.867ZM23.7829 100.154V111.333H26.7829V100.154H23.7829ZM25.2829 109.833H21.9569V112.833H25.2829V109.833ZM20.4569 111.333V119.333H23.4569V111.333H20.4569ZM40.7524 119.333V111.333H37.7524V119.333H40.7524ZM39.2524 109.833H35.2611V112.833H39.2524V109.833ZM35.2611 109.833H25.2829V112.833H35.2611V109.833ZM25.725 101.587L35.7032 98.5103L34.8191 95.6435L24.8409 98.7205L25.725 101.587ZM35.7032 98.5103L45.6814 95.4334L44.7973 92.5666L34.8191 95.6435L35.7032 98.5103ZM36.7611 111.333V97.0769H33.7611V111.333H36.7611ZM79.3757 95.4294L89.0468 98.5063L89.9564 95.6475L80.2852 92.5706L79.3757 95.4294ZM88.0016 97.0769V111.333H91.0016V97.0769H88.0016ZM89.5016 109.833H85.1521V112.833H89.5016V109.833ZM83.6521 111.333V119.333H86.6521V111.333H83.6521ZM85.1521 120.833H89.5016V117.833H85.1521V120.833ZM88.0016 119.333V128.667H91.0016V119.333H88.0016ZM89.5016 127.167H35.2611V130.167H89.5016V127.167ZM35.2611 120.833H39.2524V117.833H35.2611V120.833ZM36.7611 128.667V119.333H33.7611V128.667H36.7611ZM21.9569 120.833H25.2829V117.833H21.9569V120.833ZM25.2829 120.833H35.2611V117.833H25.2829V120.833ZM23.7829 119.333V128.667H26.7829V119.333H23.7829ZM25.2829 127.167H19.9612V130.167H25.2829V127.167ZM19.9612 144.5H2.00049V147.5H19.9612V144.5ZM18.4612 128.667V146H21.4612V128.667H18.4612ZM25.6569 45.7059L25.9514 45.7697L26.5867 42.8378L26.2922 42.774L25.6569 45.7059ZM95.9277 32.5H92.4695V35.5H95.9277V32.5ZM46.7393 94V83.4968H43.7393V94H46.7393ZM81.3304 94V81.3001H78.3304V94H81.3304ZM57.6496 3.5H66.2239V0.5H57.6496V3.5ZM86.9782 61.3333C86.9782 75.6038 75.4358 87.1667 61.2045 87.1667V90.1667C77.0988 90.1667 89.9782 77.2545 89.9782 61.3333H86.9782ZM61.2045 87.1667C46.9731 87.1667 35.4307 75.6038 35.4307 61.3333H32.4307C32.4307 77.2545 45.3101 90.1667 61.2045 90.1667V87.1667ZM29.6574 46.1667H33.9307V43.1667H29.6574V46.1667ZM35.4307 61.3333V44.6667H32.4307V61.3333H35.4307ZM88.4782 46.1667H95.9277V43.1667H88.4782V46.1667ZM89.9782 61.3333V44.6667H86.9782V61.3333H89.9782ZM33.9307 46.1667H88.4782V43.1667H33.9307V46.1667ZM53.8871 31.8333H31.9351V34.8333H53.8871V31.8333ZM31.9351 31.8333H29.8659V34.8333H31.9351V31.8333ZM50.6005 15.2776L54.1685 7.27765L51.4287 6.05569L47.8607 14.0557L50.6005 15.2776ZM54.1303 7.35696L55.43 4.84951L52.7666 3.46891L51.4669 5.97637L54.1303 7.35696ZM33.4351 33.3333C33.4351 28.6307 35.1521 22.2462 38.5095 17.0658C41.8597 11.8964 46.6676 8.16667 52.7986 8.16667V5.16667C45.2867 5.16667 39.6628 9.77022 35.992 15.4342C32.3283 21.0872 30.4351 28.036 30.4351 33.3333H33.4351ZM68.3836 4.74063L69.9473 7.42229L72.5389 5.91105L70.9751 3.22939L68.3836 4.74063ZM69.8969 7.32816L73.8277 15.3282L76.5202 14.0052L72.5894 6.00518L69.8969 7.32816ZM93.9695 34C93.9695 29.0617 92.2779 21.9571 88.6697 16.0513C85.0491 10.1253 79.3302 5.16667 71.2431 5.16667V8.16667C77.9117 8.16667 82.806 12.2081 86.1097 17.6154C89.4257 23.0429 90.9695 29.6049 90.9695 34H93.9695ZM89.0468 98.5063L96.006 100.72L96.9155 97.8616L89.9564 95.6475L89.0468 98.5063ZM96.4607 144.5H19.9612V147.5H96.4607V144.5ZM96.4607 109.833H89.5016V112.833H96.4607V109.833ZM89.5016 120.833H96.4607V117.833H89.5016V120.833ZM57.6496 0.5C55.5952 0.5 53.712 1.64497 52.7666 3.46891L55.43 4.84951C55.8598 4.02044 56.7158 3.5 57.6496 3.5V0.5ZM98.5388 32.7001C97.6748 32.5669 96.8019 32.5 95.9277 32.5V35.5C96.6489 35.5 97.3689 35.5552 98.0816 35.6651L98.5388 32.7001ZM98.5388 45.9666C106.124 44.7971 106.124 33.8696 98.5388 32.7001L98.0816 35.6651C102.276 36.3118 102.276 42.3548 98.0816 43.0016L98.5388 45.9666ZM98.0816 43.0016C97.3689 43.1115 96.6489 43.1667 95.9277 43.1667V46.1667C96.8019 46.1667 97.6748 46.0998 98.5388 45.9666L98.0816 43.0016ZM25.9514 45.7697C27.1691 46.0336 28.4115 46.1667 29.6574 46.1667V43.1667C28.6251 43.1667 27.5956 43.0564 26.5867 42.8378L25.9514 45.7697ZM25.7031 32.3356C22.1986 33.1899 20.4114 36.1696 20.3799 39.0533C20.3483 41.9497 22.0927 44.9336 25.6569 45.7059L26.2922 42.774C24.3245 42.3476 23.3613 40.7783 23.3798 39.086C23.3984 37.381 24.4191 35.7365 26.4136 35.2503L25.7031 32.3356ZM66.2239 3.5C67.1132 3.5 67.9356 3.97241 68.3836 4.74063L70.9751 3.22939C69.9896 1.53931 68.1804 0.5 66.2239 0.5V3.5ZM26.4136 35.2503C27.5395 34.9758 28.7105 34.8333 29.8659 34.8333V31.8333C28.4676 31.8333 27.0582 32.0053 25.7031 32.3356L26.4136 35.2503ZM3.50049 117.175C3.50049 111.982 6.8852 107.397 11.8469 105.867L10.9628 103C4.74329 104.918 0.500488 110.666 0.500488 117.175H3.50049Z" fill="white"/>
<path d="M117.749 146H108.453C104.035 146 100.453 142.418 100.453 138V83.333C100.453 78.9147 104.035 75.333 108.453 75.333H147.001C151.419 75.333 155.001 78.9147 155.001 83.333V138.682C155.001 142.724 151.725 146 147.683 146V146M109.766 85.9997H144.357M109.766 94.6663H144.357" stroke="#5CBAEC" stroke-width="3"/>
<path d="M123.734 139.188V139.188C124.481 139.395 125.1 139.92 125.426 140.624L125.664 141.138C126.566 143.084 128.878 143.926 130.819 143.015L131.051 142.906M123.734 139.188L123.263 139.058C121.181 138.48 119.946 136.34 120.487 134.248V134.248C120.773 133.143 120.563 131.959 119.919 131.016V131.016C118.718 129.254 119.13 126.835 120.861 125.59V125.59C121.786 124.925 122.377 123.891 122.479 122.757L122.487 122.664C122.677 120.566 124.527 119.015 126.626 119.192V119.192C127.754 119.288 128.868 118.878 129.665 118.074V118.074C131.162 116.564 133.602 116.564 135.098 118.074V118.074C135.896 118.878 137.009 119.288 138.138 119.192V119.192C140.237 119.015 142.087 120.566 142.276 122.664L142.285 122.757C142.387 123.891 142.978 124.925 143.902 125.59V125.59C145.634 126.835 146.046 129.253 144.845 131.015V131.015C144.201 131.959 143.99 133.144 144.276 134.25L144.346 134.518C144.86 136.505 143.787 138.559 141.861 139.271L141.695 139.333M123.734 139.188L119.077 154.666L123.734 151.333L126.395 158L131.051 142.906M131.051 142.906V142.906C131.894 142.51 132.869 142.51 133.712 142.906V142.906M133.712 142.906L134.188 143.129C135.995 143.977 138.147 143.194 138.986 141.383L139.073 141.195C139.555 140.154 140.553 139.446 141.695 139.333V139.333M133.712 142.906L141.03 162L143.025 155.333L148.347 158L141.695 139.333" stroke="#5CBAEC" stroke-width="3"/>
</svg>
