<svg width="164" height="148" viewBox="0 0 164 148" fill="none" xmlns="http://www.w3.org/2000/svg">
<path d="M33.2922 18.377L33.2364 19.8759L34.313 19.916L34.6948 18.9086L33.2922 18.377ZM57.832 9.7103L57.4312 11.1558L58.4124 11.4278L59.0274 10.6164L57.832 9.7103ZM15.3848 35.0436L15.9553 36.4309L16.8848 36.0487V35.0436H15.3848ZM4.10976 57.0436L5.29174 57.9672L5.71957 57.4196L5.57855 56.7392L4.10976 57.0436ZM83.0356 5.04362L82.2273 6.30725L82.9767 6.78655L83.7567 6.3589L83.0356 5.04362ZM106.912 9.7103L105.702 10.5971L106.474 11.6498L107.623 11.031L106.912 9.7103ZM133.442 18.377L132.062 18.9653L132.45 19.877H133.442V18.377ZM153.339 33.7103L151.861 33.966L151.967 34.579L152.476 34.937L153.339 33.7103ZM160.634 59.7103L159.222 59.2045L159.062 59.6518L159.188 60.1098L160.634 59.7103ZM119.514 83.7103L120.47 82.5547L118.761 81.1401L118.085 83.2534L119.514 83.7103ZM92.9841 94.3769L93.528 92.979L92.4019 92.5409L91.734 93.5479L92.9841 94.3769ZM20.6771 59.0422C20.3081 59.784 20.6103 60.6843 21.352 61.0533C22.0938 61.4223 22.9941 61.1201 23.3631 60.3783L20.6771 59.0422ZM64.4673 33.7103L65.0357 32.3222L64.9903 32.3036L64.9438 32.288L64.4673 33.7103ZM55.5821 25.319C54.9978 24.7317 54.0481 24.7293 53.4608 25.3136C52.8735 25.8978 52.871 26.8476 53.4553 27.4349L55.5821 25.319ZM87.0173 22.377L88.473 22.739C88.6685 21.9529 88.2045 21.1535 87.4249 20.9334C86.6453 20.7133 85.8317 21.1519 85.5873 21.9243L87.0173 22.377ZM125.314 75.6319C125.27 76.4591 125.906 77.1649 126.733 77.2082C127.56 77.2515 128.266 76.616 128.31 75.7887L125.314 75.6319ZM115.169 33.8475C115.981 33.6843 116.507 32.8935 116.344 32.0813C116.181 31.2691 115.39 30.7431 114.578 30.9064L115.169 33.8475ZM146.051 63.0586C146.796 63.4216 147.694 63.1122 148.057 62.3675C148.42 61.6229 148.111 60.7249 147.366 60.3619L146.051 63.0586ZM125.32 61.7103L123.975 62.373L125.32 61.7103ZM91.8428 76.6837C92.3804 77.314 93.3272 77.3891 93.9575 76.8516C94.5878 76.314 94.663 75.3672 94.1254 74.7369L91.8428 76.6837ZM70.5234 60.8654C70.0568 61.5499 70.2335 62.4831 70.918 62.9497C71.6025 63.4163 72.5357 63.2397 73.0023 62.5551L70.5234 60.8654ZM47.1968 63.5255C47.6711 64.2047 48.6062 64.3708 49.2854 63.8965C49.9646 63.4222 50.1307 62.4871 49.6564 61.8079L47.1968 63.5255ZM87.0173 109.71L86.3437 108.37L84.6644 109.214L85.8599 110.664L87.0173 109.71ZM94.9762 105.044L95.0765 103.547L94.5192 103.51L94.0732 103.846L94.9762 105.044ZM122.169 94.3769L122.482 92.9099L121.44 92.6879L120.887 93.5977L122.169 94.3769ZM157.984 89.7103L159.483 89.6482L159.372 86.9746L157.149 88.4642L157.984 89.7103ZM108.904 145.71L107.436 146.018L107.686 147.21H108.904V145.71ZM112.22 119.71L112.393 118.22L109.85 117.925L110.836 120.288L112.22 119.71ZM120.843 140.377L122.331 140.562L122.38 140.167L122.227 139.799L120.843 140.377ZM135.434 107.044L135.348 105.546L134.402 105.6L134.044 106.478L135.434 107.044ZM34.6948 18.9086C35.457 16.8975 37.5065 13.9557 41.158 12.0188C44.7674 10.1043 50.0586 9.11144 57.4312 11.1558L58.2328 8.26484C50.2182 6.0425 44.1239 7.04967 39.7523 9.36851C35.4229 11.6649 32.896 15.1898 31.8896 17.8454L34.6948 18.9086ZM33.348 16.878C30.1356 16.7584 25.3286 17.5002 21.2741 20.1749C17.1306 22.9083 13.8848 27.5967 13.8848 35.0436H16.8848C16.8848 28.6239 19.6081 24.8679 22.9261 22.6791C26.333 20.4315 30.4797 19.7733 33.2364 19.8759L33.348 16.878ZM5.57855 56.7392C5.07282 54.2992 4.97623 50.2818 6.36949 46.3439C7.7442 42.4585 10.5636 38.648 15.9553 36.4309L14.8143 33.6563C8.53304 36.2392 5.1622 40.762 3.54129 45.3433C1.93892 49.8721 2.04131 54.4547 2.64098 57.348L5.57855 56.7392ZM83.8438 3.77998C81.204 2.09156 76.7303 0.343639 71.7427 0.51115C66.6799 0.681188 61.1661 2.82817 56.6366 8.80423L59.0274 10.6164C62.9869 5.39245 67.6427 3.65054 71.8434 3.50946C76.1194 3.36585 80.003 4.88457 82.2273 6.30725L83.8438 3.77998ZM108.122 8.82348C106.421 6.50273 103.133 3.52976 98.6848 1.97739C94.1759 0.403885 88.5375 0.316356 82.3144 3.72834L83.7567 6.3589C89.2065 3.37088 93.9589 3.50558 97.6963 4.80986C101.494 6.13528 104.308 8.69564 105.702 10.5971L108.122 8.82348ZM134.821 17.7887C133.399 14.4515 130.281 9.97901 125.463 7.38912C120.544 4.74471 114.04 4.16818 106.201 8.38961L107.623 11.031C114.64 7.25244 120.075 7.89814 124.043 10.0315C128.113 12.2194 130.832 16.0802 132.062 18.9653L134.821 17.7887ZM154.817 33.4546C153.852 27.8807 148.199 16.877 133.442 16.877V19.877C146.275 19.877 151.056 29.3176 151.861 33.966L154.817 33.4546ZM162.046 60.216C163.114 57.2363 163.984 52.3506 163.195 47.1999C162.4 42.0098 159.907 36.4975 154.202 32.4835L152.476 34.937C157.383 38.3897 159.532 43.0997 160.229 47.654C160.933 52.2478 160.145 56.6288 159.222 59.2045L162.046 60.216ZM118.557 84.8659C121.701 87.4673 126.517 88.9904 131.685 89.4421C136.887 89.8967 142.641 89.2852 147.798 87.4209C152.952 85.5575 157.611 82.4017 160.438 77.6953C163.287 72.9541 164.159 66.8342 162.08 59.3107L159.188 60.1098C161.089 66.9863 160.22 72.2331 157.867 76.1503C155.493 80.1021 151.489 82.8964 146.778 84.5996C142.069 86.3021 136.756 86.8738 131.946 86.4535C127.103 86.0302 122.965 84.6199 120.47 82.5547L118.557 84.8659ZM92.4402 95.7749C96.0561 97.1818 101.803 98.3226 107.349 97.1089C113.008 95.8704 118.379 92.1832 120.942 84.1672L118.085 83.2534C115.873 90.1707 111.405 93.1502 106.707 94.1783C101.896 95.2313 96.7655 94.2388 93.528 92.979L92.4402 95.7749ZM23.3631 60.3783C23.7719 59.5565 25.354 57.9157 29.0479 56.8144C32.6901 55.7285 38.2555 55.2169 46.3198 56.5243L46.7999 53.563C38.4159 52.2037 32.3747 52.692 28.1907 53.9395C24.0584 55.1715 21.5947 57.1974 20.6771 59.0422L23.3631 60.3783ZM63.0087 33.3602C62.2696 36.4398 60.5108 41.1972 57.6754 45.3474C54.8284 49.5145 51.0536 52.8493 46.3363 53.5604L46.7835 56.5269C52.6803 55.638 57.0859 51.5283 60.1524 47.0398C63.2305 42.5345 65.1183 37.4252 65.9259 34.0603L63.0087 33.3602ZM53.4553 27.4349C54.4868 28.4717 56.223 30.0797 58.117 31.5719C59.9699 33.0317 62.1338 34.5104 63.9907 35.1326L64.9438 32.288C63.6172 31.8435 61.8016 30.6556 59.9736 29.2154C58.1867 27.8076 56.5403 26.2822 55.5821 25.319L53.4553 27.4349ZM85.5617 22.0149C84.8433 24.9033 82.9297 28.8612 79.624 31.3847C76.4282 33.8243 71.7473 35.0706 65.0357 32.3222L63.8988 35.0984C71.5132 38.2166 77.3335 36.9074 81.4444 33.7692C85.4454 30.7149 87.6438 26.0729 88.473 22.739L85.5617 22.0149ZM114.578 30.9064C110.675 31.691 103.425 36.086 103.425 47.0436H106.425C106.425 37.7345 112.44 34.3962 115.169 33.8475L114.578 30.9064ZM104.317 48.4148C116.726 53.9181 121.838 58.0332 123.975 62.373L126.666 61.0476C124.013 55.6599 117.966 51.1858 105.533 45.6724L104.317 48.4148ZM123.975 62.373C125.726 65.9283 125.616 69.8627 125.314 75.6319L128.31 75.7887C128.603 70.1789 128.821 65.4244 126.666 61.0476L123.975 62.373ZM147.366 60.3619C143.492 58.4736 133.578 55.8103 124.638 60.3743L126.002 63.0463C133.778 59.0769 142.631 61.3914 146.051 63.0586L147.366 60.3619ZM85.5873 21.9243C84.1932 26.3284 85.009 34.8112 94.0226 42.234L95.9297 39.9181C87.7745 33.2022 87.4558 25.9623 88.4474 22.8296L85.5873 21.9243ZM94.0226 42.234C96.6932 44.4332 100.074 46.5335 104.317 48.4148L105.533 45.6724C101.506 43.8867 98.3643 41.923 95.9297 39.9181L94.0226 42.234ZM93.733 40.2366C91.1209 44.1052 87.8318 50.8893 86.9288 58.1929L89.9061 58.561C90.7374 51.8377 93.8015 45.4963 96.2193 41.9154L93.733 40.2366ZM86.9288 58.1929C86.1611 64.4017 87.1074 71.1315 91.8428 76.6837L94.1254 74.7369C90.1017 70.0193 89.2055 64.2277 89.9061 58.561L86.9288 58.1929ZM73.0023 62.5551C74.4815 60.3851 79.6332 56.3423 87.8406 59.7616L88.9943 56.9923C79.2795 52.945 72.6797 57.7021 70.5234 60.8654L73.0023 62.5551ZM45.0628 55.137C45.1141 55.9595 45.1018 56.601 45.0897 57.1945C45.0779 57.7694 45.0621 58.3819 45.1387 59.011C45.3045 60.3741 45.8734 61.6303 47.1968 63.5255L49.6564 61.8079C48.4498 60.08 48.1963 59.3025 48.1167 58.6487C48.0706 58.2693 48.0763 57.8776 48.0891 57.2559C48.1014 56.6529 48.1166 55.9055 48.057 54.9502L45.0628 55.137ZM87.6909 111.051C89.4565 110.163 93.6362 107.932 95.8792 106.241L94.0732 103.846C92.0714 105.355 88.1154 107.48 86.3437 108.37L87.6909 111.051ZM120.887 93.5977C118.754 97.1061 110.451 104.577 95.0765 103.547L94.8759 106.54C111.336 107.643 120.72 99.6478 123.451 95.1562L120.887 93.5977ZM157.149 88.4642C152.828 91.3597 139.577 96.5549 122.482 92.9099L121.856 95.844C139.78 99.6657 153.854 94.283 158.819 90.9564L157.149 88.4642ZM85.8599 110.664C89.0363 114.518 93.9429 120.939 98.3124 127.646C102.722 134.414 106.439 141.257 107.436 146.018L110.372 145.403C109.247 140.03 105.227 132.762 100.826 126.008C96.3854 119.192 91.4097 112.681 88.1748 108.756L85.8599 110.664ZM110.836 120.288L119.458 140.954L122.227 139.799L113.605 119.133L110.836 120.288ZM119.354 140.192C119.279 140.798 117.687 144.21 108.904 144.21V147.21C118.162 147.21 121.964 143.512 122.331 140.562L119.354 140.192ZM112.048 121.2C115.134 121.558 119.997 121.308 124.746 119.421C129.531 117.519 134.251 113.929 136.823 107.609L134.044 106.478C131.841 111.891 127.829 114.968 123.638 116.633C119.411 118.313 115.055 118.529 112.393 118.22L112.048 121.2ZM156.485 89.7724C156.58 92.0536 155.719 95.7205 152.666 98.9459C149.639 102.145 144.337 105.03 135.348 105.546L135.52 108.541C145.101 107.991 151.185 104.876 154.845 101.008C158.48 97.1668 159.609 92.7003 159.483 89.6482L156.485 89.7724ZM2.92779 56.1201C0.880042 58.7408 0.216185 62.3223 0.606819 65.9301C0.999512 69.557 2.46812 73.3668 4.89852 76.6098L7.2992 74.8107C5.18449 71.9889 3.92283 68.6868 3.58939 65.6072C3.25389 62.5086 3.86804 59.7892 5.29174 57.9672L2.92779 56.1201ZM88.3768 101.214C90.4994 99.8305 92.4738 97.8601 94.2342 95.206L91.734 93.5479C90.1689 95.9077 88.4748 97.5692 86.7384 98.7011L88.3768 101.214Z" fill="white"/>
<ellipse cx="41.7942" cy="106" rx="39.7942" ry="40" stroke="#5CBAEC" stroke-width="3"/>
<path d="M41.7938 78L41.7938 106L59.7012 117.333" stroke="#5CBAEC" stroke-width="3" stroke-linecap="round"/>
</svg>
