<svg width="204" height="110" viewBox="0 0 204 110" fill="none" xmlns="http://www.w3.org/2000/svg">
<path d="M105.333 0H76.6668L61.3335 17.2289H105.333L105.333 60.9639L122.667 45.7229V17.2289V0H105.333Z" fill="white"/>
<rect x="90.667" y="21.2046" width="10.6667" height="10.6024" fill="white"/>
<path d="M3.008 98.9395V76.2195H12.352C13.312 76.2195 14.1973 76.4221 15.008 76.8275C15.8187 77.2328 16.512 77.7768 17.088 78.4595C17.6853 79.1208 18.144 79.8781 18.464 80.7315C18.8053 81.5635 18.976 82.4061 18.976 83.2595C18.976 84.1768 18.816 85.0621 18.496 85.9155C18.1973 86.7688 17.76 87.5261 17.184 88.1875C16.6293 88.8488 15.9573 89.3821 15.168 89.7875C14.3787 90.1715 13.504 90.3635 12.544 90.3635H4.64V98.9395H3.008ZM4.64 88.8595H12.48C13.2267 88.8595 13.8987 88.7101 14.496 88.4115C15.0933 88.0915 15.5947 87.6755 16 87.1635C16.4267 86.6301 16.7467 86.0328 16.96 85.3715C17.1947 84.6888 17.312 83.9848 17.312 83.2595C17.312 82.5128 17.1733 81.8088 16.896 81.1475C16.64 80.4648 16.2773 79.8675 15.808 79.3555C15.36 78.8435 14.8267 78.4381 14.208 78.1395C13.6107 77.8408 12.9707 77.6915 12.288 77.6915H4.64V88.8595ZM28.1943 99.1315C27.2343 99.1315 26.2849 99.0248 25.3463 98.8115C24.4289 98.5768 23.5649 98.2355 22.7543 97.7875C21.9436 97.3395 21.2183 96.7848 20.5782 96.1235C19.9382 95.4621 19.4262 94.7048 19.0422 93.8515L20.4183 93.1795C20.8236 93.9475 21.3143 94.6195 21.8903 95.1955C22.4876 95.7501 23.1276 96.2088 23.8103 96.5715C24.4929 96.9341 25.1969 97.2008 25.9223 97.3715C26.6476 97.5421 27.3623 97.6275 28.0663 97.6275C29.3463 97.6275 30.5303 97.3715 31.6183 96.8595C32.7276 96.3261 33.6876 95.6221 34.4983 94.7475C35.3089 93.8728 35.9489 92.8595 36.4183 91.7075C36.9089 90.5341 37.1863 89.3075 37.2503 88.0275H25.3783V86.6195H37.2183C37.1329 85.4888 36.8769 84.3901 36.4503 83.3235C36.0236 82.2355 35.4263 81.2648 34.6583 80.4115C33.8903 79.5581 32.9623 78.8755 31.8743 78.3635C30.8076 77.8515 29.5703 77.5955 28.1623 77.5955C27.4796 77.5955 26.7863 77.6701 26.0823 77.8195C25.3996 77.9688 24.7383 78.2141 24.0983 78.5555C23.4583 78.8755 22.8609 79.3021 22.3063 79.8355C21.7516 80.3688 21.2716 81.0301 20.8663 81.8195L19.5222 81.0515C20.2262 79.6008 21.2822 78.4168 22.6902 77.4995C24.1196 76.5608 25.9009 76.0915 28.0343 76.0915C29.7836 76.0915 31.3303 76.4328 32.6743 77.1155C34.0396 77.7768 35.1809 78.6408 36.0983 79.7075C37.0369 80.7741 37.7409 81.9901 38.2103 83.3555C38.6796 84.6995 38.9143 86.0541 38.9143 87.4195C38.9143 88.8701 38.6583 90.2995 38.1463 91.7075C37.6343 93.0941 36.9089 94.3421 35.9703 95.4515C35.0316 96.5395 33.9009 97.4248 32.5783 98.1075C31.2556 98.7901 29.7943 99.1315 28.1943 99.1315ZM42.8455 99.1955C42.4188 99.1955 42.0028 99.1528 41.5975 99.0675C41.1922 98.9821 40.8188 98.8328 40.4775 98.6195V97.1155C40.7975 97.3288 41.1495 97.4888 41.5335 97.5955C41.9388 97.6808 42.3442 97.7235 42.7495 97.7235C43.1548 97.7235 43.5175 97.6595 43.8375 97.5315C44.1788 97.4035 44.5095 97.1795 44.8295 96.8595C45.1495 96.5395 45.4695 96.1235 45.7895 95.6115C46.1095 95.0781 46.4615 94.4061 46.8455 93.5955L38.3015 76.2195H40.0615L47.6455 91.7715L55.0695 76.2195H56.8295L48.3815 93.6915C47.8695 94.7581 47.3895 95.6435 46.9415 96.3475C46.5148 97.0515 46.0882 97.6168 45.6615 98.0435C45.2348 98.4488 44.7868 98.7475 44.3175 98.9395C43.8695 99.1101 43.3788 99.1955 42.8455 99.1955Z" fill="white"/>
<path d="M74.144 99.1315C73.0987 99.1315 72.0853 99.0141 71.104 98.7795C70.144 98.5448 69.248 98.2035 68.416 97.7555C67.6053 97.3075 66.88 96.7635 66.24 96.1235C65.6 95.4621 65.0987 94.7048 64.736 93.8515L67.712 92.1555C68.032 92.8168 68.4267 93.3821 68.896 93.8515C69.3867 94.3208 69.9093 94.7155 70.464 95.0355C71.04 95.3341 71.6267 95.5581 72.224 95.7075C72.8427 95.8355 73.44 95.8995 74.016 95.8995C75.0613 95.8995 76.0107 95.7181 76.864 95.3555C77.7387 94.9715 78.496 94.4595 79.136 93.8195C79.776 93.1581 80.288 92.4008 80.672 91.5475C81.0773 90.6941 81.344 89.7875 81.472 88.8275H71.136V85.8515H81.408C81.2587 85.0195 81.0027 84.2088 80.64 83.4195C80.2773 82.6301 79.7973 81.9368 79.2 81.3395C78.6027 80.7208 77.8773 80.2301 77.024 79.8675C76.192 79.5048 75.2213 79.3235 74.112 79.3235C73.536 79.3235 72.9493 79.3875 72.352 79.5155C71.776 79.6221 71.2107 79.8141 70.656 80.0915C70.1013 80.3688 69.5787 80.7421 69.088 81.2115C68.6187 81.6808 68.224 82.2568 67.904 82.9395L65.088 81.0515C65.8347 79.6008 66.944 78.4168 68.416 77.4995C69.888 76.5608 71.744 76.0915 73.984 76.0915C75.8187 76.0915 77.4293 76.4221 78.816 77.0835C80.224 77.7448 81.3973 78.6195 82.336 79.7075C83.296 80.7741 84.0107 81.9901 84.48 83.3555C84.9707 84.6995 85.216 86.0541 85.216 87.4195C85.216 88.8701 84.9493 90.2995 84.416 91.7075C83.904 93.0941 83.168 94.3421 82.208 95.4515C81.248 96.5395 80.0853 97.4248 78.72 98.1075C77.3547 98.7901 75.8293 99.1315 74.144 99.1315ZM106.375 76.2195V98.9395H102.759V88.9235H91.303V98.9395H87.719V76.2195H91.303V85.7235H102.759V76.2195H106.375ZM125.96 95.7715V98.9395H110.376V76.2195H125.672V79.3875H113.96V85.8515H124.104V88.8275H113.96V95.7715H125.96ZM128.471 98.9395V76.2195H138.008C139.032 76.2195 139.97 76.4328 140.824 76.8595C141.698 77.2861 142.445 77.8515 143.064 78.5555C143.682 79.2381 144.162 80.0275 144.503 80.9235C144.866 81.7981 145.048 82.6941 145.048 83.6115C145.048 84.5715 144.877 85.4995 144.536 86.3955C144.216 87.2701 143.757 88.0595 143.16 88.7635C142.562 89.4461 141.837 90.0008 140.984 90.4275C140.152 90.8328 139.224 91.0355 138.2 91.0355H132.056V98.9395H128.471ZM132.056 87.8675H137.976C138.488 87.8675 138.946 87.7608 139.352 87.5475C139.778 87.3341 140.141 87.0355 140.44 86.6515C140.738 86.2675 140.973 85.8195 141.144 85.3075C141.314 84.7955 141.4 84.2301 141.4 83.6115C141.4 82.9715 141.304 82.3955 141.112 81.8835C140.92 81.3715 140.653 80.9341 140.312 80.5715C139.97 80.1875 139.576 79.8995 139.128 79.7075C138.701 79.4941 138.253 79.3875 137.784 79.3875H132.056V87.8675ZM160.663 79.3875H150.807V98.9395H147.191V76.2195H160.663V79.3875ZM166.09 93.4035L178.474 76.2195H181.322V98.9395H177.706V82.0755L165.514 98.9395H162.474V76.2195H166.09V93.4035ZM197.16 98.9395V90.3315H192.712L187.528 98.9395H183.464L189.032 89.8835C188.392 89.6275 187.794 89.2861 187.24 88.8595C186.706 88.4115 186.237 87.8995 185.832 87.3235C185.448 86.7475 185.149 86.1181 184.936 85.4355C184.722 84.7528 184.616 84.0275 184.616 83.2595C184.616 82.3635 184.786 81.4888 185.128 80.6355C185.49 79.7821 185.981 79.0355 186.6 78.3955C187.218 77.7341 187.954 77.2115 188.808 76.8275C189.682 76.4221 190.632 76.2195 191.656 76.2195H200.776V98.9395H197.16ZM197.16 79.3555H191.976C191.485 79.3555 191.016 79.4515 190.568 79.6435C190.12 79.8355 189.725 80.1128 189.384 80.4755C189.042 80.8168 188.765 81.2328 188.552 81.7235C188.36 82.1928 188.264 82.7048 188.264 83.2595C188.264 83.8141 188.349 84.3261 188.52 84.7955C188.69 85.2648 188.936 85.6808 189.256 86.0435C189.576 86.3848 189.949 86.6621 190.376 86.8755C190.824 87.0675 191.304 87.1635 191.816 87.1635H197.16V79.3555Z" fill="white"/>
</svg>
